# File created by Blade
# Date/Time:  Fri Jan 16 19:18:57 2015
# Frame Rate: 120.000 fps
#------------------------------------------------------
:FULLY-SPECIFIED
:DEGREES
692
root 19.778292 35.734469 -22.122652 -166.889708 -1.485476 -178.464065
Spine -26.521308 -5.166216 2.993892
Head 18.253599 -5.045337 20.200946
LeftShoulder -27.330895 -68.825054 85.401647
LeftArm 65.635571 -45.158258 -25.975464
LeftForeArm -66.238564 -0.000000 104.732639
LeftHand 7.557833 0.000000 -0.879310
LeftHandThumb1 -26.253704 0.000000 33.147579
RightShoulder -15.950978 13.167681 -33.825889
RightArm 29.417160 76.159534 0.305644
RightForeArm 43.833106 -0.000000 90.145366
RightHand 6.147252 -0.000000 9.867673
RightHandThumb1 -24.326973 -0.000000 -32.862282
LeftUpLeg -4.450032 8.990176 -0.075861
LeftLeg -6.922820 -0.000000 0.000000
LeftFoot -19.396845 25.815758 -14.754064
LeftToeBase 25.372039 -0.000000 -0.000000
RightUpLeg -4.904700 -6.228303 1.426840
RightLeg -3.689761 -0.000000 0.000000
RightFoot -20.384301 -24.054589 19.503720
RightToeBase 22.299719 -0.000000 -0.000000
693
root 19.780816 35.734617 -22.121829 -166.898072 -1.494682 -178.466337
Spine -26.516032 -5.167969 2.985786
Head 18.283572 -5.086377 20.194419
LeftShoulder -27.299109 -68.802575 85.354737
LeftArm 65.603557 -45.160221 -25.932077
LeftForeArm -66.252727 0.000000 104.710262
LeftHand 7.589656 -0.000000 -0.917552
LeftHandThumb1 -26.253704 0.000000 33.147579
RightShoulder -15.953724 13.119609 -33.762009
RightArm 29.771920 76.232459 0.570828
RightForeArm 43.833762 -0.000000 90.087525
RightHand 6.130287 -0.000000 9.908108
RightHandThumb1 -24.326973 -0.000000 -32.862282
LeftUpLeg -4.451776 9.002248 -0.073030
LeftLeg -6.908777 -0.000000 0.000000
LeftFoot -19.396494 25.780156 -14.769893
LeftToeBase 25.337438 -0.000000 -0.000000
RightUpLeg -4.895689 -6.233513 1.430986
RightLeg -3.690853 -0.000000 0.000000
RightFoot -20.386470 -24.061467 19.473261
RightToeBase 22.330044 -0.000000 -0.000000
694
root 19.782814 35.735023 -22.121044 -166.904477 -1.500173 -178.467348
Spine -26.510281 -5.165487 2.985556
Head 18.316529 -5.124687 20.183312
LeftShoulder -27.219854 -68.777524 85.264830
LeftArm 65.537930 -45.198000 -25.834257
LeftForeArm -66.206681 -0.000000 104.720525
LeftHand 7.571822 -0.000000 -0.828676
LeftHandThumb1 -26.253704 0.000000 33.147579
RightShoulder -15.933740 13.107685 -33.735770
RightArm 29.889386 76.268354 0.614407
RightForeArm 43.812864 -0.000000 90.037878
RightHand 6.147080 -0.000000 9.855593
RightHandThumb1 -24.326973 -0.000000 -32.862282
LeftUpLeg -4.447720 8.996375 -0.068307
LeftLeg -6.906383 -0.000000 0.000000
LeftFoot -19.401713 25.778305 -14.781488
LeftToeBase 25.379172 -0.000000 -0.000000
RightUpLeg -4.889238 -6.257486 1.435446
RightLeg -3.698435 -0.000000 0.000000
RightFoot -20.355974 -23.932661 19.631796
RightToeBase 22.015201 -0.000000 -0.000000
695
root 19.784482 35.734719 -22.119903 -166.903544 -1.507342 -178.472013
Spine -26.512746 -5.157268 2.985981
Head 18.326120 -5.178598 20.126085
LeftShoulder -27.390520 -68.831759 85.440091
LeftArm 65.397331 -45.126666 -25.774779
LeftForeArm -66.181670 -0.000000 104.745779
LeftHand 7.552271 -0.000000 -0.859996
LeftHandThumb1 -26.253704 0.000000 33.147579
RightShoulder -15.931025 13.046075 -33.715733
RightArm 30.086567 76.353070 0.745301
RightForeArm 43.797605 -0.000000 89.981474
RightHand 6.144327 -0.000000 9.887579
RightHandThumb1 -24.326973 -0.000000 -32.862282
LeftUpLeg -4.455127 8.992478 -0.071165
LeftLeg -6.902366 -0.000000 0.000000
LeftFoot -19.391554 25.791357 -14.758489
LeftToeBase 25.332043 -0.000000 -0.000000
RightUpLeg -4.886131 -6.260299 1.434807
RightLeg -3.704816 -0.000000 0.000000
RightFoot -20.359192 -23.968639 19.539681
RightToeBase 22.183758 -0.000000 -0.000000
